<svg data-aos-delay="100" class="logo" xmlns="http://www.w3.org/2000/svg" viewBox="-40 140 750 50">
<path d="M19.893,5.7a2.516,2.516,0,0,1,1.952.584,2.2,2.2,0,0,1,.277,1.841L19.16,25.047a.694.694,0,0,1-.767.627H15.284q-.629,0-.518-.627l2.572-14.694q.1-.57-.5-.57H7.714a.633.633,0,0,0-.7.57L4.442,25.047a.679.679,0,0,1-.738.627H.6q-.657,0-.547-.627L3.01,8.128a2.968,2.968,0,0,1,.922-1.841A3.324,3.324,0,0,1,6.088,5.7Z" fill="#231f20">
</path>
<path d="M53.662,10.011a12.833,12.833,0,0,1,3.167.328,3.956,3.956,0,0,1,1.917,1.027,3.158,3.158,0,0,1,.812,1.8,8.754,8.754,0,0,1-.119,2.64L58.11,23.392a5.709,5.709,0,0,1-.3,1.127,1.832,1.832,0,0,1-.464.7,1.6,1.6,0,0,1-.7.356,4.57,4.57,0,0,1-1.045.1H45.018a7.214,7.214,0,0,1-2.054-.242,2.589,2.589,0,0,1-1.228-.728,2.169,2.169,0,0,1-.508-1.255,6.717,6.717,0,0,1,.106-1.826l.24-1.369a6.077,6.077,0,0,1,.49-1.584A3.4,3.4,0,0,1,43,17.486a4,4,0,0,1,1.482-.728,8.209,8.209,0,0,1,2.14-.242h8.612l.095-.542a4.118,4.118,0,0,0,.062-1.17,1.323,1.323,0,0,0-.348-.785,1.78,1.78,0,0,0-.864-.442,6.515,6.515,0,0,0-1.516-.142H43.737c-.342,0-.483-.172-.424-.514l.42-2.4a.555.555,0,0,1,.6-.513Zm-.31,12.525a.946.946,0,0,0,.679-.214,1.376,1.376,0,0,0,.319-.756l.439-2.511H47.346a1.98,1.98,0,0,0-1.3.357,1.694,1.694,0,0,0-.539,1.041l-.1.6a1.368,1.368,0,0,0,.16,1.127,1.5,1.5,0,0,0,1.178.357Z" fill="#231f20">
</path>
<path d="M79.822,10.011q.513,0,.424.513l-.42,2.4a.556.556,0,0,1-.6.514H72.806L70.773,25.047a.679.679,0,0,1-.738.627h-2.8q-.657,0-.546-.627l2.033-11.612H62.309c-.342,0-.483-.172-.424-.514l.42-2.4a.554.554,0,0,1,.6-.513Z" fill="#231f20">
</path>
<path d="M121.506,10.011a12.833,12.833,0,0,1,3.167.328,3.956,3.956,0,0,1,1.917,1.027,3.158,3.158,0,0,1,.812,1.8,8.754,8.754,0,0,1-.119,2.64l-.72,4.108a9.947,9.947,0,0,1-.8,2.639,4.967,4.967,0,0,1-1.442,1.8,5.816,5.816,0,0,1-2.274,1.013,14.873,14.873,0,0,1-3.279.313H113.69a13.364,13.364,0,0,1-3.184-.313,3.861,3.861,0,0,1-1.905-1.013,3.159,3.159,0,0,1-.813-1.8,8.784,8.784,0,0,1,.12-2.639l.72-4.108a9.918,9.918,0,0,1,.8-2.64,4.972,4.972,0,0,1,1.442-1.8,5.953,5.953,0,0,1,2.262-1.027,14.261,14.261,0,0,1,3.3-.328ZM112.113,19.2a6.689,6.689,0,0,0-.122,1.512,1.625,1.625,0,0,0,.332.956,1.644,1.644,0,0,0,.866.513,5.738,5.738,0,0,0,1.484.157h4.276a6.572,6.572,0,0,0,1.568-.157,2.528,2.528,0,0,0,1.046-.513,2.469,2.469,0,0,0,.666-.956,7.346,7.346,0,0,0,.408-1.512l.474-2.711A6.511,6.511,0,0,0,123.229,15a1.712,1.712,0,0,0-.33-.97,1.534,1.534,0,0,0-.866-.514,6.5,6.5,0,0,0-1.515-.143h-4.276a7.027,7.027,0,0,0-1.537.143,2.355,2.355,0,0,0-1.046.514,2.569,2.569,0,0,0-.669.97,7.157,7.157,0,0,0-.4,1.483Z" fill="#231f20">
</path>
<path d="M142.82,10.011a12.833,12.833,0,0,1,3.167.328,3.956,3.956,0,0,1,1.917,1.027,3.152,3.152,0,0,1,.812,1.8,8.722,8.722,0,0,1-.119,2.64l-.72,4.108a9.91,9.91,0,0,1-.8,2.639,4.967,4.967,0,0,1-1.442,1.8,5.816,5.816,0,0,1-2.274,1.013,14.873,14.873,0,0,1-3.279.313h-7.7l-.994,5.678a.679.679,0,0,1-.738.628h-2.8q-.655,0-.546-.628L130.027,15.8a9.953,9.953,0,0,1,.805-2.64,4.97,4.97,0,0,1,1.441-1.8,5.957,5.957,0,0,1,2.263-1.027,14.261,14.261,0,0,1,3.3-.328Zm-9.842,12.24h7.3a7.192,7.192,0,0,0,1.566-.143,2.331,2.331,0,0,0,1.045-.514,2.582,2.582,0,0,0,.67-.97,7.416,7.416,0,0,0,.407-1.512l.444-2.539a6.729,6.729,0,0,0,.12-1.5,1.465,1.465,0,0,0-1.195-1.484,5.938,5.938,0,0,0-1.513-.156h-4.191a6.479,6.479,0,0,0-1.539.156,2.536,2.536,0,0,0-1.046.514,2.475,2.475,0,0,0-.669.97,7.424,7.424,0,0,0-.405,1.5Z" fill="#231f20">
</path>
<path d="M157.793,10.011a4.475,4.475,0,0,1,1.038.1,1.684,1.684,0,0,1,.7.342,1.964,1.964,0,0,1,.484.656,10.224,10.224,0,0,1,.426,1.07l3.093,9.387a.355.355,0,0,0,.354.257h.457a.5.5,0,0,0,.445-.257l6.379-9.387q.458-.655.8-1.07a3.3,3.3,0,0,1,.714-.656,2.485,2.485,0,0,1,.815-.342,4.96,4.96,0,0,1,1.074-.1h2.853a3.769,3.769,0,0,1,1.2.157,1.243,1.243,0,0,1,.681.513,1.827,1.827,0,0,1,.237.927,7.3,7.3,0,0,1-.131,1.4L177.3,25.047a.678.678,0,0,1-.737.627h-2.825q-.627,0-.517-.627l1.988-11.356c.033-.19-.027-.285-.179-.285h-.257a.541.541,0,0,0-.25.043.476.476,0,0,0-.161.185l-6.3,9.244q-.534.771-.955,1.3a5.131,5.131,0,0,1-.865.871,2.775,2.775,0,0,1-.97.485,4.622,4.622,0,0,1-1.209.142h-1.255a4.076,4.076,0,0,1-1.159-.142,1.793,1.793,0,0,1-.8-.485,3.31,3.31,0,0,1-.575-.871,9.576,9.576,0,0,1-.486-1.3l-3.061-9.244a.293.293,0,0,0-.095-.185.457.457,0,0,0-.236-.043h-.256c-.153,0-.245.095-.278.285l-1.989,11.356a.678.678,0,0,1-.737.627h-2.8q-.657,0-.547-.627l2.108-12.04a7.952,7.952,0,0,1,.359-1.4,2.637,2.637,0,0,1,.562-.927,1.991,1.991,0,0,1,.86-.513,4.442,4.442,0,0,1,1.283-.157Z" fill="#231f20">
</path>
<path d="M192.744,10.011a12.827,12.827,0,0,1,3.167.328,3.947,3.947,0,0,1,1.917,1.027,3.153,3.153,0,0,1,.813,1.8,8.726,8.726,0,0,1-.12,2.64l-1.329,7.589a5.715,5.715,0,0,1-.3,1.127,1.833,1.833,0,0,1-.465.7,1.584,1.584,0,0,1-.7.356,4.554,4.554,0,0,1-1.044.1H184.1a7.226,7.226,0,0,1-2.055-.242,2.6,2.6,0,0,1-1.228-.728,2.169,2.169,0,0,1-.507-1.255,6.752,6.752,0,0,1,.1-1.826l.24-1.369a6.04,6.04,0,0,1,.491-1.584,3.4,3.4,0,0,1,.935-1.184,4.013,4.013,0,0,1,1.483-.728,8.206,8.206,0,0,1,2.139-.242h8.612l.095-.542a4.082,4.082,0,0,0,.062-1.17,1.322,1.322,0,0,0-.347-.785,1.789,1.789,0,0,0-.864-.442,6.521,6.521,0,0,0-1.516-.142H182.82c-.342,0-.484-.172-.424-.514l.419-2.4a.556.556,0,0,1,.6-.513Zm-.309,12.525a.947.947,0,0,0,.679-.214,1.369,1.369,0,0,0,.318-.756l.44-2.511h-7.443a1.98,1.98,0,0,0-1.3.357,1.694,1.694,0,0,0-.539,1.041l-.1.6a1.373,1.373,0,0,0,.159,1.127,1.5,1.5,0,0,0,1.179.357Z" fill="#231f20">
</path>
<path d="M40.178,10.574a2.072,2.072,0,0,0-1.736-.6H32.3a6.667,6.667,0,0,0-1.6.171,4.423,4.423,0,0,0-1.245.513,4.173,4.173,0,0,0-.989.842,8.714,8.714,0,0,0-.83,1.156,21.292,21.292,0,0,0-1.069,2.2q-.534,1.254-.98,2.5t-.792,2.325q-.347,1.084-.542,1.712a1.733,1.733,0,0,1-.249.442.747.747,0,0,1-.6.186l-.56,0q-.631,0-.722.51L21.66,25.1q-.095.537.511.538h2.077a2.6,2.6,0,0,0,1.818-.528A3.143,3.143,0,0,0,26.9,23.7c.684-2.168,1.229-3.7,1.715-5.121a18.613,18.613,0,0,1,1.418-3.3,3.427,3.427,0,0,1,1.2-1.384,2.44,2.44,0,0,1,1.122-.3h3.26c.361,0,.515.153.462.457L34.16,24.982q-.115.657.484.656h2.882c.38,0,.611-.228.69-.684l2.223-12.7A2.112,2.112,0,0,0,40.178,10.574Z" fill="#231f20">
</path>
<path d="M103.394.571C98.053.009,93.979,4.009,92.857,9.137l-.084.463-.063.38H88.866a14.193,14.193,0,0,0-3.288.328,5.941,5.941,0,0,0-2.257,1.024,4.978,4.978,0,0,0-1.438,1.793,9.95,9.95,0,0,0-.8,2.633l-.718,4.1a8.7,8.7,0,0,0-.119,2.632,3.151,3.151,0,0,0,.81,1.793,3.836,3.836,0,0,0,1.9,1.01,13.288,13.288,0,0,0,3.175.313h4.293c-1.087,4.875-2.924,9.571-6.3,11.52l.079.358c5.952-.661,8.546-5.831,9.956-11.878H98.2a14.8,14.8,0,0,0,3.271-.313,5.777,5.777,0,0,0,2.268-1.01,4.959,4.959,0,0,0,1.438-1.793,9.941,9.941,0,0,0,.8-2.632l.717-4.1a8.676,8.676,0,0,0,.119-2.633,3.148,3.148,0,0,0-.81-1.793,3.944,3.944,0,0,0-1.912-1.024,12.769,12.769,0,0,0-3.159-.328H96.552l.057-.38c.649-3.87,2.648-7.172,5.586-6.863A4.787,4.787,0,0,1,105.9,5.924l.191.02s1.99-.451,2.165-2.1C108.483,1.689,105.238.765,103.394.571ZM91.869,15.949c-.193,1.832-.439,4.035-.81,6.326H87.111a5.723,5.723,0,0,1-1.481-.157,1.64,1.64,0,0,1-.863-.512,1.616,1.616,0,0,1-.331-.954,6.656,6.656,0,0,1,.122-1.508l.473-2.7a7.128,7.128,0,0,1,.4-1.48,2.567,2.567,0,0,1,.668-.968,2.341,2.341,0,0,1,1.043-.512,6.988,6.988,0,0,1,1.533-.143h3.485C92.078,14,91.991,14.788,91.869,15.949Zm8.081-2.611a6.476,6.476,0,0,1,1.512.143,1.461,1.461,0,0,1,.85.512,1.771,1.771,0,0,1,.314.968,6.478,6.478,0,0,1-.117,1.48l-.473,2.7a7.307,7.307,0,0,1-.407,1.508,2.523,2.523,0,0,1-.65.954,2.419,2.419,0,0,1-1.03.512,6.53,6.53,0,0,1-1.564.157H94.816c.518-3.07.847-6.191,1.24-8.937Z" fill="#febe10">
</path>
<polygon points="236.507 2.051 204.58 2.051 199.745 29.129 231.673 29.129 236.507 2.051" fill="#00aeef"></polygon>
<path d="M230.222,17.154l1.15-5.886-4.032.655a.413.413,0,0,0-.339.329l-.954,4.9h-2.968c-.146,0-.207-.064-.185-.191l.029-.164a1.406,1.406,0,0,1,.168-.428L231.318,4h-4.372l-6.585,9.425c-.857,1.186-1.466,2.059-1.522,2.151a3.681,3.681,0,0,0-.442,1.273l-.364,2.08a1.479,1.479,0,0,0,.227,1.2,1.457,1.457,0,0,0,1.232.466h5.882l-.779,4.1a.414.414,0,0,0,.406.491h3.677l.872-4.588h1.207l1.317-3.447Z" fill="#fff"></path><path d="M218.459,7.348q-.957-1.226-3.436-1.226L207.55,6.11a.661.661,0,0,0-.652.554l-.509,3.114,7.345-.032a1.124,1.124,0,0,1,1.044.422,1.634,1.634,0,0,1,.129,1.131l-.205,1.172A1.6,1.6,0,0,1,213.018,14h-2.143a5.6,5.6,0,0,0-3.782,1.212,5.692,5.692,0,0,0-1.807,3.474l-.735,4.2a2.1,2.1,0,0,0,.265,1.757,2.4,2.4,0,0,0,1.864.559h10.2a.664.664,0,0,0,.732-.6l.424-2.425q.1-.6-.522-.6h-8.155q-.546,0-.445-.572l.405-2.316a1.61,1.61,0,0,1,1.689-1.553h2.143a5.6,5.6,0,0,0,3.782-1.213,5.651,5.651,0,0,0,1.8-3.446l.334-1.908A3.918,3.918,0,0,0,218.459,7.348Z" fill="#fff">
</path>
</svg>